<svg id="PDF" xmlns="http://www.w3.org/2000/svg" xmlns:xlink="http://www.w3.org/1999/xlink" viewBox="0 0 777.66 1255.58"><defs><symbol id="Nic_Logo-3" data-name="Nic_Logo" viewBox="0 0 777.66 1191.58"><path d="m131.13 980.95-7.13 58.23H99.2l10.67-86.82h24.8l23.07 14.32 1.74-14.32h24.8l-10.67 86.82h-24.8l5.39-43.9Zm73.49 58.23h-24.8l10.67-86.82h24.8Zm91.28-86.82-3 24.8h-49.65l-4.59 37.21h49.61l-3 24.8h-74.45l10.67-86.82h74.41Zm24.1 55.81-3.78 31h-24.8l10.67-86.82h24.8l-3.78 31h24.8l3.78-31h24.8l-10.67 86.82H341l3.78-31H320Zm62.71-55.81h74.41l-10.67 86.82H372Zm21.77 24.8-4.59 37.21h24.8l4.59-37.21h-24.8Zm58.85-24.8h24.8l-7.63 62h49.61l-3 24.8h-74.45Zm80.62 0h74.41l-10.67 86.82h-24.8l2.29-18.6h-24.8l-2.29 18.6h-24.8Zm21.77 24.8-2.29 18.6h24.8l2.29-18.6h-24.8ZM699 952.36l-3 24.8h-49.67l-.74 6.2h49.61l-6.88 55.81h-74.43l3-24.8h49.61l.74-6.2h-49.56l6.88-55.81H699Zm-666.65 152.4h74.41l-10.66 86.82H71.29l2.29-18.6h-24.8l-2.29 18.6H21.68Zm21.77 24.8-2.29 18.6h24.8l2.29-18.6H54.11Zm147.4 62.02h-24.8l7.63-62h-12.4l-7.63 62H139.5l7.63-62h-12.4l-7.63 62h-24.8l10.7-86.82h99.22Zm34.04-24.81h49.61l-3 24.8h-74.45l10.67-86.82h74.41l-3 24.8h-49.65l-.74 6.2H289l-3.1 24.8h-49.6Zm137.85-62.01-6.88 55.81h-14l14.08 31h-28.67l-14.08-31h-6.95l-3.78 31h-24.8l10.67-86.81h74.41Zm-27.84 24.8h-24.8l-.74 6.2h24.8Zm34.04-24.8H454l-10.67 86.82h-74.38Zm21.77 24.8-4.59 37.21h24.8l4.59-37.21h-24.8Zm80.12 3.79-7.13 58.23h-24.8l10.67-86.82H485l23.07 14.32 1.74-14.32h24.8L524 1191.58h-24.8l5.39-43.9Zm133.76-28.59-3 24.8h-49.65l-4.61 37.21h24.8l.74-6.2H565l3.1-24.8h43.41l-6.88 55.81h-74.45l10.67-86.82h74.41Zm23.38 62.01h49.61l-3 24.8h-74.46l10.67-86.82h74.41l-3 24.8h-49.65l-.74 6.2h49.61l-3.1 24.8h-49.61Zm84.7-33.42-7.13 58.23h-24.8l10.67-86.82h24.8l23.07 14.32 1.74-14.32h24.8l-10.67 86.82H741l5.39-43.9Z" id="Text"/><path d="m388.95 28.7 363.65 210c0 .75-169 289.51-169 289.51l169.09-97.34v224.31a5.58 5.58 0 0 1-3.24 5.63Q570.62 763.9 391.94 867.21a5.33 5.33 0 0 1-6.17 0Q206.92 763.8 28 660.57a5 5 0 0 1-3-5q.1-206.67 0-413.35c0-2.66.91-4 3.15-5.31q178.79-103.16 357.51-206.4c1.03-.6 2.09-1.15 3.29-1.81ZM25 242.19l360.77 624.99m-.11-836.67v836.67M752.6 238.69 385.66 867.18" style="fill:none;stroke:#000;stroke-miterlimit:10;stroke-width:50px" id="Black_Outline" data-name="Black Outline"/><g id="Colours"><path id="N_Blue" data-name="N Blue" class="cls-2" d="m360.57 31.14.15 743.74L37.1 219.08 360.57 31.14z"/><path id="N_Pink" data-name="N Pink" class="cls-3" d="m37.59 679.45-.49-385.23 324 571.74L37.59 679.45z"/><path id="A_Pink" data-name="A Pink" class="cls-3" d="m410.1 24.78 327.39 191.99-327.39 559V24.78z"/><path id="A_Blue" data-name="A Blue" class="cls-2" d="m729.1 472.7-.05 210.08-318.95 185.9 191.48-322.39L729.1 472.7z"/></g></symbol><symbol id="Nic_logo" data-name="Nic_logo" viewBox="0 0 777.66 1191.58"><use width="777.66" height="1191.58" xlink:href="#Nic_Logo-3"/></symbol><style>.cls-2{fill:#45efff}.cls-3{fill:#b9009e}</style></defs><use width="777.66" height="1191.58" transform="translate(0 61.16)" xlink:href="#Nic_logo"/></svg>